# xmcd
#
# Track frame offsets:
#	150
#	21210
#	38588
#	55613
#	69433
#	92253
#	110206
#	130386
#	147776
#	164491
#	180438
#	199560
#	212025
#	228008
#	247520
#
# Disc length: 3536 seconds
#
# Revision: 2
# Processed by: cddbd v1.5.1PL0 Copyright (c) Steve Scherf et al.
# Submitted via: audiograbber 1.83.01
#
DISCID=ba0dce0f
DTITLE=Various Artist - SC7595
DYEAR=1900
DGENRE=Karaoke Country
TTITLE0=Lee Ann Womack - I Hope You Dance (Radio Version)
TTITLE1=Carter Deana - We Danced Anyway
TTITLE2=Clint Black - Like The Rain
TTITLE3=LeAnn Rimes - Blue
TTITLE4=Trisha Yearwood - How Do I Live
TTITLE5=Tim McGraw and Faith Hill - It's Your Love
TTITLE6=George Strait - Carrying You Love With Me
TTITLE7=Shania Twain - Don't Be Stupid (You Know I Love You)
TTITLE8=Garth Brooks - Unanswered Prayers
TTITLE9=Faith Hill - Way You Love Me, Then
TTITLE10=Lonestar - Amazed
TTITLE11=Martina McBride - My Baby Loves Me
TTITLE12=Shania Twain - You're Still The One
TTITLE13=Tracy Byrd - The Keeper Of The Stars
TTITLE14=Jo Dee Messina - Heads Carolina, Tails California
EXTD=Karaoke
EXTT0=
EXTT1=
EXTT2=
EXTT3=
EXTT4=
EXTT5=
EXTT6=
EXTT7=
EXTT8=
EXTT9=
EXTT10=
EXTT11=
EXTT12=
EXTT13=
EXTT14=
PLAYORDER=
